<svg width="453" height="265" viewBox="0 0 453 265" fill="none" xmlns="http://www.w3.org/2000/svg">
<path d="M15.8 158.602C12.4876 158.602 9.71239 158.076 7.4743 157.024C5.2362 155.972 3.54644 154.383 2.40501 152.257C1.26359 150.108 0.692871 147.434 0.692871 144.233C0.692871 143.718 0.692871 143.304 0.692871 142.991C0.692871 142.655 0.692871 142.23 0.692871 141.715H3.31144C3.31144 142.23 3.31144 142.644 3.31144 142.957C3.31144 143.271 3.31144 143.685 3.31144 144.199C3.31144 148.362 4.37454 151.417 6.50073 153.364C8.62692 155.289 11.6819 156.252 15.6657 156.252C19.851 156.252 22.9843 155.401 25.0657 153.7C27.1695 151.977 28.2214 149.481 28.2214 146.214C28.2214 143.931 27.6955 142.062 26.6436 140.607C25.6141 139.13 24.1593 137.888 22.2793 136.881C20.4217 135.874 18.2172 134.945 15.6657 134.094C12.7562 133.132 10.2048 132.035 8.01144 130.804C5.81811 129.551 4.11716 128.04 2.90859 126.272C1.70001 124.482 1.09573 122.255 1.09573 119.592C1.09573 117.063 1.66644 114.936 2.80787 113.213C3.97168 111.49 5.61668 110.192 7.74287 109.319C9.89144 108.424 12.4429 107.976 15.3972 107.976C18.5529 107.976 21.2498 108.468 23.4879 109.453C25.726 110.415 27.4381 111.904 28.6243 113.918C29.8329 115.91 30.4372 118.45 30.4372 121.539C30.4372 122.121 30.4372 122.602 30.4372 122.982C30.4372 123.34 30.4372 123.81 30.4372 124.392H27.8186C27.8186 123.833 27.8186 123.374 27.8186 123.016C27.8186 122.635 27.8186 122.165 27.8186 121.606C27.8186 117.622 26.7331 114.746 24.5622 112.978C22.4136 111.21 19.381 110.326 15.4643 110.326C11.7267 110.326 8.82835 111.098 6.7693 112.642C4.71025 114.187 3.68073 116.503 3.68073 119.592C3.68073 121.897 4.25144 123.81 5.39287 125.332C6.55668 126.832 8.14573 128.096 10.16 129.126C12.1743 130.133 14.4683 131.073 17.0422 131.946C19.9517 132.908 22.4248 133.983 24.4614 135.169C26.5205 136.355 28.0872 137.81 29.1614 139.533C30.2581 141.256 30.8064 143.45 30.8064 146.113C30.8064 148.732 30.2245 150.97 29.0607 152.827C27.9193 154.685 26.2295 156.117 23.9914 157.124C21.7757 158.109 19.0453 158.602 15.8 158.602Z" fill="white"/>
<path d="M40.7499 157.997V108.479H43.3013V157.997H40.7499Z" fill="white"/>
<path d="M68.3209 158.602C65.0086 158.602 62.2333 158.076 59.9952 157.024C57.7571 155.972 56.0674 154.383 54.9259 152.257C53.7845 150.108 53.2138 147.434 53.2138 144.233C53.2138 143.718 53.2138 143.304 53.2138 142.991C53.2138 142.655 53.2138 142.23 53.2138 141.715H55.8324C55.8324 142.23 55.8324 142.644 55.8324 142.957C55.8324 143.271 55.8324 143.685 55.8324 144.199C55.8324 148.362 56.8955 151.417 59.0216 153.364C61.1478 155.289 64.2028 156.252 68.1867 156.252C72.3719 156.252 75.5052 155.401 77.5866 153.7C79.6905 151.977 80.7424 149.481 80.7424 146.214C80.7424 143.931 80.2164 142.062 79.1645 140.607C78.135 139.13 76.6802 137.888 74.8002 136.881C72.9426 135.874 70.7381 134.945 68.1867 134.094C65.2771 133.132 62.7257 132.035 60.5324 130.804C58.339 129.551 56.6381 128.04 55.4295 126.272C54.2209 124.482 53.6166 122.255 53.6166 119.592C53.6166 117.063 54.1874 114.936 55.3288 113.213C56.4926 111.49 58.1376 110.192 60.2638 109.319C62.4124 108.424 64.9638 107.976 67.9181 107.976C71.0738 107.976 73.7707 108.468 76.0088 109.453C78.2469 110.415 79.959 111.904 81.1452 113.918C82.3538 115.91 82.9581 118.45 82.9581 121.539C82.9581 122.121 82.9581 122.602 82.9581 122.982C82.9581 123.34 82.9581 123.81 82.9581 124.392H80.3395C80.3395 123.833 80.3395 123.374 80.3395 123.016C80.3395 122.635 80.3395 122.165 80.3395 121.606C80.3395 117.622 79.254 114.746 77.0831 112.978C74.9345 111.21 71.9019 110.326 67.9852 110.326C64.2476 110.326 61.3493 111.098 59.2902 112.642C57.2312 114.187 56.2016 116.503 56.2016 119.592C56.2016 121.897 56.7724 123.81 57.9138 125.332C59.0776 126.832 60.6666 128.096 62.6809 129.126C64.6952 130.133 66.9893 131.073 69.5631 131.946C72.4726 132.908 74.9457 133.983 76.9824 135.169C79.0414 136.355 80.6081 137.81 81.6824 139.533C82.779 141.256 83.3274 143.45 83.3274 146.113C83.3274 148.732 82.7455 150.97 81.5816 152.827C80.4402 154.685 78.7505 156.117 76.5124 157.124C74.2966 158.109 71.5662 158.602 68.3209 158.602Z" fill="white"/>
<path d="M120.128 110.796H105.827L106.599 109.386V157.997H103.98V109.386L104.853 110.796H90.4844V108.479H120.128V110.796Z" fill="white"/>
<path d="M130.464 110.796L131.639 109.386V132.987L130.834 132.013H151.681V134.296H130.834L131.639 133.322V157.091L130.464 155.681H154.065V157.997H129.054V108.479H154.065V110.796H130.464Z" fill="white"/>
<path d="M199.731 108.479H204.095V157.997H201.611V110.561L201.779 110.594L186.84 157.997H182.912L168.006 110.594L168.174 110.561V157.997H165.69V108.479H170.054L184.96 156.184H184.758L199.731 108.479Z" fill="white"/>
<path d="M212.968 157.997L227.437 108.278H231.331L245.7 157.997H242.98L229.35 110.259H229.418L215.687 157.997H212.968ZM218.809 143.528V141.212H239.959V143.528H218.809Z" fill="white"/>
<path d="M284.765 158.602C281.452 158.602 278.677 158.076 276.439 157.024C274.201 155.972 272.511 154.383 271.37 152.257C270.228 150.108 269.658 147.434 269.658 144.233C269.658 143.718 269.658 143.304 269.658 142.991C269.658 142.655 269.658 142.23 269.658 141.715H272.276C272.276 142.23 272.276 142.644 272.276 142.957C272.276 143.271 272.276 143.685 272.276 144.199C272.276 148.362 273.339 151.417 275.466 153.364C277.592 155.289 280.647 156.252 284.631 156.252C288.816 156.252 291.949 155.401 294.031 153.7C296.134 151.977 297.186 149.481 297.186 146.214C297.186 143.931 296.66 142.062 295.608 140.607C294.579 139.13 293.124 137.888 291.244 136.881C289.387 135.874 287.182 134.945 284.631 134.094C281.721 133.132 279.17 132.035 276.976 130.804C274.783 129.551 273.082 128.04 271.873 126.272C270.665 124.482 270.061 122.255 270.061 119.592C270.061 117.063 270.631 114.936 271.773 113.213C272.936 111.49 274.581 110.192 276.708 109.319C278.856 108.424 281.408 107.976 284.362 107.976C287.518 107.976 290.215 108.468 292.453 109.453C294.691 110.415 296.403 111.904 297.589 113.918C298.798 115.91 299.402 118.45 299.402 121.539C299.402 122.121 299.402 122.602 299.402 122.982C299.402 123.34 299.402 123.81 299.402 124.392H296.783C296.783 123.833 296.783 123.374 296.783 123.016C296.783 122.635 296.783 122.165 296.783 121.606C296.783 117.622 295.698 114.746 293.527 112.978C291.378 111.21 288.346 110.326 284.429 110.326C280.691 110.326 277.793 111.098 275.734 112.642C273.675 114.187 272.646 116.503 272.646 119.592C272.646 121.897 273.216 123.81 274.358 125.332C275.521 126.832 277.111 128.096 279.125 129.126C281.139 130.133 283.433 131.073 286.007 131.946C288.916 132.908 291.39 133.983 293.426 135.169C295.485 136.355 297.052 137.81 298.126 139.533C299.223 141.256 299.771 143.45 299.771 146.113C299.771 148.732 299.189 150.97 298.026 152.827C296.884 154.685 295.194 156.117 292.956 157.124C290.741 158.109 288.01 158.602 284.765 158.602Z" fill="white"/>
<path d="M326.064 158.602C323.311 158.602 320.782 158.031 318.477 156.889C316.172 155.726 314.168 154.047 312.468 151.854C310.789 149.638 309.48 146.964 308.54 143.83C307.622 140.697 307.163 137.149 307.163 133.188C307.163 129.227 307.633 125.69 308.573 122.579C309.513 119.446 310.834 116.805 312.535 114.657C314.236 112.486 316.228 110.829 318.51 109.688C320.816 108.547 323.333 107.976 326.064 107.976C328.794 107.976 331.312 108.547 333.618 109.688C335.923 110.829 337.926 112.486 339.627 114.657C341.328 116.805 342.637 119.446 343.555 122.579C344.495 125.69 344.965 129.227 344.965 133.188C344.965 137.149 344.495 140.697 343.555 143.83C342.637 146.964 341.328 149.638 339.627 151.854C337.948 154.047 335.956 155.726 333.651 156.889C331.346 158.031 328.817 158.602 326.064 158.602ZM326.064 156.252C329.242 156.252 332.051 155.334 334.49 153.499C336.952 151.641 338.866 148.989 340.231 145.542C341.619 142.073 342.313 137.955 342.313 133.188C342.313 128.399 341.608 124.303 340.198 120.901C338.81 117.477 336.896 114.869 334.457 113.079C332.017 111.266 329.22 110.359 326.064 110.359C322.931 110.359 320.133 111.266 317.671 113.079C315.232 114.869 313.307 117.477 311.897 120.901C310.509 124.303 309.815 128.399 309.815 133.188C309.815 137.978 310.509 142.096 311.897 145.542C313.307 148.989 315.232 151.641 317.671 153.499C320.133 155.334 322.931 156.252 326.064 156.252Z" fill="white"/>
<path d="M354.153 157.997V108.479H356.738V157.091L355.563 155.681H377.015V157.997H354.153Z" fill="white"/>
<path d="M383.382 157.997L397.851 108.278H401.746L416.114 157.997H413.395L399.765 110.259H399.832L386.101 157.997H383.382ZM389.223 143.528V141.212H410.373V143.528H389.223Z" fill="white"/>
<path d="M424.378 157.997V108.479H439.653C443.771 108.479 446.949 109.487 449.187 111.501C451.425 113.493 452.544 116.693 452.544 121.102C452.544 123.788 452.03 126.071 451 127.951C449.993 129.831 448.796 131.286 447.408 132.315C446.02 133.322 444.778 133.904 443.681 134.061C444.778 134.15 445.897 134.475 447.039 135.034C448.202 135.572 449.176 136.411 449.959 137.552C450.743 138.671 451.134 140.182 451.134 142.084C451.134 144.099 451.134 146.191 451.134 148.362C451.134 150.511 451.134 152.592 451.134 154.607C451.134 155.479 451.213 156.229 451.369 156.856C451.526 157.46 451.66 157.841 451.772 157.997H449.12C449.031 157.818 448.907 157.438 448.751 156.856C448.616 156.252 448.549 155.502 448.549 154.607C448.549 152.659 448.549 150.634 448.549 148.53C448.549 146.426 448.549 144.401 448.549 142.454C448.549 139.947 447.732 138.123 446.099 136.982C444.465 135.84 442.283 135.269 439.552 135.269H426.056L426.896 134.229V157.997H424.378ZM426.896 134.094L426.056 132.987H439.552C441.41 132.987 443.122 132.505 444.689 131.543C446.255 130.581 447.509 129.227 448.449 127.481C449.411 125.735 449.892 123.654 449.892 121.237C449.892 117.521 448.963 114.858 447.106 113.247C445.271 111.613 442.585 110.796 439.049 110.796H426.023L426.896 109.654V134.094Z" fill="white"/>
<mask id="mask0_2_169" style="mask-type:alpha" maskUnits="userSpaceOnUse" x="106" y="36" width="269" height="194">
<path fill-rule="evenodd" clip-rule="evenodd" d="M174.058 223.906C203.583 217.575 239.619 202.204 275.098 179.235C310.577 156.266 338.629 130.148 355.329 106.554C363.683 94.7518 369.134 83.6672 371.309 73.9909C373.484 64.3173 372.349 56.2525 367.85 50.1972C363.351 44.1419 355.657 40.3233 345.189 38.8343C334.718 37.345 321.686 38.2266 306.917 41.3937C277.391 47.7252 241.355 63.0966 205.876 86.0653C170.397 109.034 142.346 135.152 125.646 158.746C117.292 170.548 111.84 181.633 109.665 191.309C107.491 200.983 108.626 209.048 113.125 215.103C117.624 221.158 125.318 224.977 135.786 226.466C146.256 227.955 159.289 227.074 174.058 223.906ZM111.446 216.19C131.22 242.805 205.023 226.978 276.291 180.84C347.559 134.703 389.303 75.725 369.529 49.1103C349.755 22.4956 275.951 38.3222 204.684 84.4599C133.416 130.598 91.6718 189.575 111.446 216.19Z" fill="white"/>
</mask>
<g mask="url(#mask0_2_169)">
<path d="M191.205 6.7275L475.5 6.7275L228.828 249.392L51.1578 249.665L126 148L129 160.5L177 129L170.5 101L191.205 6.7275Z" fill="white"/>
</g>
</svg>
